# This file uses centimeters as units for non-parametric coordinates.

g default
v -0.062500 -0.190357 0.062500
v 0.062500 -0.190357 0.062500
v -0.062500 1.250000 0.062500
v 0.062500 1.250000 0.062500
v -0.051212 2.500000 0.051212
v 0.051212 2.500000 0.051212
v -0.036885 3.750000 0.036885
v 0.036885 3.750000 0.036885
v 0.000000 5.000000 0.000000
v -0.036885 3.750000 -0.036885
v 0.036885 3.750000 -0.036885
v -0.051212 2.500000 -0.051212
v 0.051212 2.500000 -0.051212
v -0.062500 1.250000 -0.062500
v 0.062500 1.250000 -0.062500
v -0.062500 -0.190357 -0.062500
v 0.062500 -0.190357 -0.062500
v -0.928658 1.249128 0.291679
v -0.000669 1.120967 0.261114
v -0.928658 1.249128 -0.230550
v -0.000669 1.120967 -0.261114
v -0.000669 0.981258 0.000000
v -0.928658 1.109419 0.030564
v -0.541081 1.411778 -0.258971
v -0.541081 1.272069 0.002144
v -0.541081 1.411778 0.263258
v 0.704875 1.782668 -0.720830
v -0.116938 1.752849 -0.271100
v 0.913576 1.991598 -0.290115
v 0.091763 1.961779 0.159614
v 0.000610 1.729770 -0.000269
v 0.822423 1.759590 -0.449999
v 0.556179 2.182759 -0.175209
v 0.465026 1.950750 -0.335092
v 0.347478 1.973829 -0.605923
v -0.854770 2.616109 0.447495
v 0.047214 2.434826 0.268374
v -0.930051 2.662087 -0.067229
v -0.028067 2.480804 -0.246351
v -0.000660 2.318908 0.000100
v -0.902644 2.500191 0.179222
v -0.539757 2.418895 -0.140587
v -0.512350 2.257000 0.105864
v -0.464477 2.372917 0.374138
v 0.548331 3.288551 -0.671741
v -0.118733 3.157713 -0.121045
v 0.792773 3.207365 -0.379338
v 0.125709 3.076528 0.171358
v 0.000388 3.016079 -0.000307
v 0.667452 3.146916 -0.551003
v 0.407097 3.337546 -0.102261
v 0.281776 3.277097 -0.273926
v 0.162655 3.418732 -0.394664
v -0.420829 2.983186 -0.739648
v -0.185846 2.758759 0.072618
v -0.043183 2.995604 -0.834894
v 0.191801 2.771177 -0.022628
v -0.000122 2.663927 -0.000468
v -0.235105 2.888353 -0.812734
v 0.013897 3.059842 -0.350043
v -0.178025 2.952591 -0.327883
v -0.363749 3.047424 -0.254797
v 0.847343 3.754199 0.328731
v 0.113657 3.880007 -0.130875
v 0.627050 3.682024 0.641948
v -0.106635 3.807832 0.182342
v 0.000411 3.742878 0.000271
v 0.734097 3.617070 0.459877
v 0.293391 3.943555 0.391473
v 0.400438 3.878601 0.209402
v 0.513683 4.015730 0.078256
v 0.058452 3.200574 0.971630
v 0.253203 3.072413 0.063792
v -0.448278 3.200574 0.845344
v -0.253526 3.072413 -0.062494
v -0.000162 2.932703 0.000649
v -0.194913 3.060865 0.908487
v -0.382130 3.363224 0.462397
v -0.128766 3.223515 0.525540
v 0.124599 3.363224 0.588684
v 0.165088 5.208347 1.191392
v 0.379969 4.310754 -0.003202
v -0.548908 5.208347 1.013451
v -0.334027 4.310754 -0.181143
v -0.000199 4.138791 0.000799
v -0.215080 5.036384 1.195393
v -0.512123 4.909532 0.300005
v -0.178295 4.737568 0.481947
v 0.201873 4.909532 0.477946
v 1.111032 5.208347 0.460736
v 0.189587 4.310754 -0.329307
v 0.596135 5.208347 0.986411
v -0.325309 4.310754 0.196367
v 0.000588 4.138791 0.000576
v 0.922033 5.036384 0.790619
v -0.000522 4.909532 0.593525
v 0.325376 4.737568 0.397734
v 0.514375 4.909532 0.067851
v 0.999551 5.208347 -0.669004
v -0.168884 4.310754 -0.340389
v 1.151427 5.208347 0.050986
v -0.017008 4.310754 0.379601
v 0.000805 4.138791 -0.000170
v 1.169241 5.036384 -0.328785
v 0.493600 4.909532 0.329594
v 0.511414 4.737568 -0.050178
v 0.341724 4.909532 -0.390397
v -0.191730 5.208347 -1.187396
v -0.379802 4.310754 0.011711
v 0.526071 5.208347 -1.025491
v 0.338000 4.310754 0.173616
v 0.000181 4.138791 -0.000803
v 0.188252 5.036384 -1.199910
v 0.505275 4.909532 -0.311400
v 0.167456 4.737568 -0.485819
v -0.212527 4.909532 -0.473305
v -1.164655 4.526203 -0.300413
v -0.141544 3.628610 0.352635
v -0.728547 4.526203 -0.893086
v 0.294565 3.628610 -0.240038
v -0.000663 3.456647 -0.000488
v -1.023774 4.354239 -0.653536
v -0.082699 4.227388 -0.587736
v -0.377926 4.055424 -0.348186
v -0.518807 4.227388 0.004937
v 0.988471 4.205627 0.685270
v 0.254939 3.308035 -0.281767
v 0.374053 4.205627 1.090168
v -0.359479 3.308035 0.123132
v 0.000453 3.136072 0.000687
v 0.733985 4.033664 0.967724
v -0.126025 3.906813 0.579992
v 0.233907 3.734849 0.457547
v 0.488393 3.906813 0.175093
v -1.561134 3.046933 0.382881
v -0.072402 3.297039 0.377909
v -1.532693 3.099538 -0.350519
v -0.043961 3.349644 -0.355491
v -0.000901 3.135342 -0.000054
v -1.489633 2.885236 0.004917
v -0.826195 3.404099 -0.438564
v -0.783134 3.189795 -0.083128
v -0.854635 3.351493 0.294836
v 1.290123 2.341829 0.920119
v 0.214033 2.388712 -0.137582
v 0.789173 2.030453 1.360059
v -0.286917 2.077337 0.302358
v 0.000667 2.057830 0.000646
v 1.076757 2.010947 1.058348
v 0.144411 2.172807 0.955502
v 0.431995 2.153299 0.653790
v 0.645361 2.484182 0.515562
vt 0.006661 0.682374
vt 0.055651 0.308263
vt 0.055651 0.007781
vt 0.006661 0.007781
vt 0.006661 0.682296
vt 0.055651 0.311333
vt 0.006661 0.684227
vt 0.055651 0.684227
vt 0.026645 0.990893
vt 0.055651 0.684227
vt 0.006661 0.684227
vt 0.055651 0.007781
vt 0.055651 0.311333
vt 0.006661 0.682296
vt 0.055651 0.308263
vt 0.006661 0.682374
vt 0.055651 0.007781
vt 0.006661 0.007781
vt 0.006661 0.684227
vt 0.026645 0.990893
vt 0.026645 0.990893
vt 0.055651 0.684227
vt 0.026645 0.990893
vt 0.006661 0.308263
vt 0.006661 0.682296
vt 0.006661 0.308263
vt 0.055651 0.682374
vt 0.055651 0.311333
vt 0.055651 0.682374
vt 0.055651 0.308263
vt 0.006661 0.308263
vt 0.006661 0.308263
vt 0.055651 0.308263
vt 0.055651 0.682374
vt 0.055651 0.684227
vt 0.006661 0.682296
vt 0.055651 0.311333
vt 0.006661 0.684227
vt 0.006661 0.684227
vt 0.006661 0.684227
vt 0.055651 0.684227
vt 0.055651 0.684227
vt 0.006661 0.311333
vt 0.006661 0.311333
vt 0.055651 0.682296
vt 0.055651 0.682296
vt 0.055651 0.684227
vt 0.055651 0.684227
vt 0.006661 0.684227
vt 0.006661 0.684227
vt 0.055651 0.682296
vt 0.055651 0.682296
vt 0.006661 0.311333
vt 0.006661 0.311333
vt 0.745604 0.746836
vt 0.982690 0.746836
vt 0.982690 0.873418
vt 0.745604 0.873418
vt 0.982690 1.000000
vt 0.745604 1.000000
vt 0.508517 0.873418
vt 0.508517 1.000000
vt 0.508517 0.746836
vt 0.745604 0.746836
vt 0.982690 0.746836
vt 0.982690 0.873418
vt 0.745604 0.873418
vt 0.982690 1.000000
vt 0.745604 1.000000
vt 0.508517 0.873418
vt 0.508517 1.000000
vt 0.508517 0.746836
vt 0.745604 0.746836
vt 0.982690 0.746836
vt 0.982690 0.873418
vt 0.745604 0.873418
vt 0.982690 1.000000
vt 0.745604 1.000000
vt 0.508517 0.873418
vt 0.508517 1.000000
vt 0.508517 0.746836
vt 0.745604 0.746836
vt 0.982690 0.746836
vt 0.982690 0.873418
vt 0.745604 0.873418
vt 0.982690 1.000000
vt 0.745604 1.000000
vt 0.508517 0.873418
vt 0.508517 1.000000
vt 0.508517 0.746836
vt 0.745604 0.746836
vt 0.982690 0.746836
vt 0.982690 0.873418
vt 0.745604 0.873418
vt 0.982690 1.000000
vt 0.745604 1.000000
vt 0.508517 0.873418
vt 0.508517 1.000000
vt 0.508517 0.746836
vt 0.745604 0.746836
vt 0.982690 0.746836
vt 0.982690 0.873418
vt 0.745604 0.873418
vt 0.982690 1.000000
vt 0.745604 1.000000
vt 0.508517 0.873418
vt 0.508517 1.000000
vt 0.508517 0.746836
vt 0.745604 0.746836
vt 0.982690 0.746836
vt 0.982690 0.873418
vt 0.745604 0.873418
vt 0.982690 1.000000
vt 0.745604 1.000000
vt 0.508517 0.873418
vt 0.508517 1.000000
vt 0.508517 0.746836
vt 0.745604 0.746836
vt 0.982690 0.746836
vt 0.982690 0.873418
vt 0.745604 0.873418
vt 0.982690 1.000000
vt 0.745604 1.000000
vt 0.508517 0.873418
vt 0.508517 1.000000
vt 0.508517 0.746836
vt 0.745604 0.746836
vt 0.982690 0.746836
vt 0.982690 0.873418
vt 0.745604 0.873418
vt 0.982690 1.000000
vt 0.745604 1.000000
vt 0.508517 0.873418
vt 0.508517 1.000000
vt 0.508517 0.746836
vt 0.745604 0.746836
vt 0.982690 0.746836
vt 0.982690 0.873418
vt 0.745604 0.873418
vt 0.982690 1.000000
vt 0.745604 1.000000
vt 0.508517 0.873418
vt 0.508517 1.000000
vt 0.508517 0.746836
vt 0.745604 0.746836
vt 0.982690 0.746836
vt 0.982690 0.873418
vt 0.745604 0.873418
vt 0.982690 1.000000
vt 0.745604 1.000000
vt 0.508517 0.873418
vt 0.508517 1.000000
vt 0.508517 0.746836
vt 0.745604 0.746836
vt 0.982690 0.746836
vt 0.982690 0.873418
vt 0.745604 0.873418
vt 0.982690 1.000000
vt 0.745604 1.000000
vt 0.508517 0.873418
vt 0.508517 1.000000
vt 0.508517 0.746836
vt 0.745604 0.746836
vt 0.982690 0.746836
vt 0.982690 0.873418
vt 0.745604 0.873418
vt 0.982690 1.000000
vt 0.745604 1.000000
vt 0.508517 0.873418
vt 0.508517 1.000000
vt 0.508517 0.746836
vt 0.745604 0.746836
vt 0.982690 0.746836
vt 0.982690 0.873418
vt 0.745604 0.873418
vt 0.982690 1.000000
vt 0.745604 1.000000
vt 0.508517 0.873418
vt 0.508517 1.000000
vt 0.508517 0.746836
vt 0.745604 0.746836
vt 0.982690 0.746836
vt 0.982690 0.873418
vt 0.745604 0.873418
vt 0.982690 1.000000
vt 0.745604 1.000000
vt 0.508517 0.873418
vt 0.508517 1.000000
vt 0.508517 0.746836
vn 0.707081 0.008513 0.707081
vn -0.707100 0.004257 0.707100
vn 0.707107 0.000000 0.707107
vn -0.707107 0.000000 0.707107
vn 0.707027 0.015061 0.707027
vn -0.707038 0.013916 0.707038
vn 0.706810 0.028955 0.706810
vn -0.706891 0.024707 0.706891
vn 0.000000 1.000000 0.000000
vn 0.706891 0.024707 -0.706891
vn -0.706810 0.028955 -0.706810
vn 0.707038 0.013916 -0.707038
vn -0.707027 0.015061 -0.707027
vn 0.707100 0.004257 -0.707100
vn -0.707081 0.008513 -0.707081
vn 0.707107 0.000000 -0.707107
vn -0.707107 0.000000 -0.707107
vn 0.427292 0.797178 -0.426531
vn 0.427292 0.797178 -0.426532
vn 0.427292 0.797178 -0.426532
vn 0.427292 0.797178 -0.426532
vn 0.430052 0.796023 0.425914
vn 0.430052 0.796023 0.425914
vn 0.430052 0.796023 0.425914
vn 0.430052 0.796023 0.425914
vn -0.318014 0.835949 0.447276
vn -0.318014 0.835949 0.447276
vn -0.318014 0.835949 0.447276
vn -0.318014 0.835949 0.447276
vn -0.375077 0.817352 -0.437326
vn -0.375077 0.817352 -0.437325
vn -0.375077 0.817352 -0.437325
vn -0.375077 0.817352 -0.437325
vn -0.294451 0.932914 0.207294
vn -0.294451 0.932913 0.207295
vn -0.294451 0.932913 0.207295
vn -0.294451 0.932913 0.207297
vn -0.637525 0.591040 -0.494199
vn -0.637525 0.591040 -0.494199
vn -0.637525 0.591040 -0.494199
vn -0.637526 0.591040 -0.494199
vn 0.032248 0.558522 -0.828863
vn 0.032248 0.558522 -0.828863
vn 0.032248 0.558522 -0.828863
vn 0.032248 0.558522 -0.828863
vn 0.439552 0.890842 -0.114867
vn 0.439552 0.890842 -0.114867
vn 0.439552 0.890842 -0.114867
vn 0.439552 0.890842 -0.114867
vn -0.185311 0.913684 -0.361721
vn -0.185311 0.913684 -0.361721
vn -0.185311 0.913684 -0.361721
vn -0.185311 0.913684 -0.361721
vn 0.012092 0.836351 0.548061
vn 0.012092 0.836351 0.548061
vn 0.012092 0.836351 0.548061
vn 0.012092 0.836352 0.548060
vn 0.535330 0.732041 0.421353
vn 0.535330 0.732041 0.421353
vn 0.535330 0.732041 0.421353
vn 0.535329 0.732041 0.421353
vn 0.420966 0.802910 -0.422047
vn 0.420966 0.802909 -0.422048
vn 0.420966 0.802909 -0.422048
vn 0.420966 0.802909 -0.422049
vn 0.074204 0.682357 0.727243
vn 0.074204 0.682357 0.727243
vn 0.074204 0.682357 0.727243
vn 0.074204 0.682357 0.727243
vn -0.589447 0.793595 0.150865
vn -0.589447 0.793595 0.150865
vn -0.589447 0.793595 0.150865
vn -0.589446 0.793595 0.150864
vn 0.051562 0.929586 -0.364981
vn 0.051562 0.929586 -0.364981
vn 0.051562 0.929586 -0.364981
vn 0.051563 0.929586 -0.364981
vn 0.526855 0.762766 0.374982
vn 0.526855 0.762767 0.374981
vn 0.526855 0.762767 0.374981
vn 0.526856 0.762767 0.374980
vn 0.534533 0.756598 0.376609
vn 0.534533 0.756598 0.376610
vn 0.534533 0.756598 0.376610
vn 0.534533 0.756598 0.376610
vn -0.275938 0.641649 0.715642
vn -0.275938 0.641650 0.715642
vn -0.275938 0.641650 0.715642
vn -0.275938 0.641651 0.715641
vn -0.492044 0.868692 -0.057165
vn -0.492044 0.868692 -0.057166
vn -0.492044 0.868692 -0.057166
vn -0.492044 0.868692 -0.057167
vn 0.395753 0.903183 -0.166254
vn 0.395753 0.903183 -0.166254
vn 0.395753 0.903183 -0.166254
vn 0.395753 0.903183 -0.166254
vn -0.476416 0.780520 0.404742
vn -0.476415 0.780520 0.404742
vn -0.476415 0.780520 0.404742
vn -0.476415 0.780521 0.404742
vn -0.106914 0.914904 -0.389255
vn -0.106914 0.914905 -0.389253
vn -0.106914 0.914905 -0.389253
vn -0.106914 0.914906 -0.389251
vn 0.588408 0.806464 0.058239
vn 0.588408 0.806464 0.058239
vn 0.588408 0.806464 0.058239
vn 0.588408 0.806464 0.058239
vn -0.000468 0.691364 0.722507
vn -0.000468 0.691364 0.722506
vn -0.000468 0.691364 0.722506
vn -0.000468 0.691365 0.722505
vn -0.310544 0.797178 -0.517754
vn -0.310544 0.797178 -0.517755
vn -0.310544 0.797178 -0.517755
vn -0.310543 0.797177 -0.517756
vn 0.517269 0.796023 -0.314294
vn 0.517269 0.796023 -0.314293
vn 0.517269 0.796023 -0.314293
vn 0.517269 0.796023 -0.314293
vn 0.357098 0.835949 0.416738
vn 0.357098 0.835949 0.416737
vn 0.357098 0.835949 0.416737
vn 0.357099 0.835949 0.416736
vn -0.515048 0.817352 0.258189
vn -0.515048 0.817352 0.258190
vn -0.515048 0.817352 0.258190
vn -0.515048 0.817352 0.258191
vn -0.260090 0.556637 -0.788992
vn -0.260089 0.556636 -0.788993
vn -0.260089 0.556636 -0.788993
vn -0.260088 0.556636 -0.788993
vn 0.598277 0.602464 -0.528301
vn 0.598278 0.602463 -0.528300
vn 0.598278 0.602463 -0.528300
vn 0.598279 0.602463 -0.528300
vn 0.559799 0.774189 -0.295393
vn 0.559800 0.774188 -0.295393
vn 0.559800 0.774188 -0.295393
vn 0.559801 0.774188 -0.295392
vn -0.385601 0.843783 -0.373285
vn -0.385602 0.843783 -0.373285
vn -0.385602 0.843783 -0.373285
vn -0.385602 0.843782 -0.373285
vn -0.812093 0.556636 -0.175103
vn -0.812093 0.556636 -0.175103
vn -0.812093 0.556636 -0.175103
vn -0.812092 0.556637 -0.175103
vn -0.152747 0.602464 -0.783394
vn -0.152747 0.602463 -0.783394
vn -0.152747 0.602463 -0.783394
vn -0.152746 0.602463 -0.783395
vn 0.028633 0.774188 -0.632308
vn 0.028635 0.774188 -0.632308
vn 0.028635 0.774188 -0.632308
vn 0.028636 0.774188 -0.632307
vn -0.517122 0.843783 0.143580
vn -0.517123 0.843782 0.143580
vn -0.517123 0.843782 0.143580
vn -0.517124 0.843782 0.143579
vn -0.596082 0.556637 0.578656
vn -0.596081 0.556637 0.578656
vn -0.596081 0.556637 0.578656
vn -0.596081 0.556637 0.578656
vn -0.736595 0.602464 -0.307352
vn -0.736595 0.602464 -0.307352
vn -0.736595 0.602464 -0.307352
vn -0.736596 0.602463 -0.307351
vn -0.510281 0.774188 -0.374495
vn -0.510281 0.774188 -0.374494
vn -0.510281 0.774188 -0.374494
vn -0.510281 0.774189 -0.374494
vn -0.167312 0.843784 0.509936
vn -0.167312 0.843783 0.509938
vn -0.167312 0.843783 0.509938
vn -0.167312 0.843782 0.509941
vn 0.277696 0.556636 0.782969
vn 0.277695 0.556636 0.782969
vn 0.277695 0.556636 0.782969
vn 0.277695 0.556636 0.782970
vn -0.586294 0.602464 0.541568
vn -0.586295 0.602463 0.541568
vn -0.586295 0.602463 0.541568
vn -0.586296 0.602463 0.541568
vn -0.553043 0.774188 0.307857
vn -0.553043 0.774188 0.307857
vn -0.553043 0.774188 0.307857
vn -0.553044 0.774188 0.307856
vn 0.393865 0.843783 0.364555
vn 0.393866 0.843783 0.364555
vn 0.393866 0.843783 0.364555
vn 0.393867 0.843783 0.364555
vn 0.828622 0.556636 0.059514
vn 0.828622 0.556636 0.059514
vn 0.828622 0.556636 0.059514
vn 0.828621 0.556637 0.059515
vn 0.261074 0.602464 0.754240
vn 0.261074 0.602464 0.754240
vn 0.261074 0.602464 0.754240
vn 0.261074 0.602463 0.754240
vn 0.060302 0.774188 0.630076
vn 0.060301 0.774188 0.630077
vn 0.060301 0.774188 0.630077
vn 0.060300 0.774188 0.630077
vn 0.491884 0.843783 -0.214664
vn 0.491884 0.843783 -0.214664
vn 0.491884 0.843783 -0.214664
vn 0.491885 0.843782 -0.214663
vn -0.756697 0.556636 -0.342879
vn -0.756697 0.556636 -0.342879
vn -0.756697 0.556636 -0.342879
vn -0.756696 0.556637 -0.342879
vn 0.016374 0.602463 -0.797979
vn 0.016375 0.602463 -0.797979
vn 0.016375 0.602463 -0.797979
vn 0.016375 0.602463 -0.797979
vn 0.161702 0.774188 -0.611952
vn 0.161703 0.774188 -0.611951
vn 0.161703 0.774188 -0.611951
vn 0.161704 0.774189 -0.611951
vn -0.535790 0.843783 0.030972
vn -0.535790 0.843783 0.030973
vn -0.535790 0.843783 0.030973
vn -0.535791 0.843782 0.030974
vn 0.103915 0.921378 -0.374519
vn 0.103914 0.921378 -0.374519
vn 0.103914 0.921378 -0.374519
vn 0.103914 0.921378 -0.374518
vn 0.004844 0.856633 0.515903
vn 0.004844 0.856633 0.515903
vn 0.004844 0.856633 0.515903
vn 0.004844 0.856633 0.515903
vn -0.282608 0.805952 0.520167
vn -0.282608 0.805951 0.520169
vn -0.282608 0.805951 0.520169
vn -0.282608 0.805950 0.520170
vn -0.402619 0.811577 -0.423368
vn -0.402619 0.811578 -0.423367
vn -0.402619 0.811578 -0.423367
vn -0.402619 0.811578 -0.423366
vn -0.700546 0.607886 0.373777
vn -0.700546 0.607887 0.373777
vn -0.700546 0.607887 0.373777
vn -0.700545 0.607887 0.373778
vn -0.050137 0.992448 -0.111954
vn -0.050137 0.992448 -0.111955
vn -0.050137 0.992448 -0.111955
vn -0.050136 0.992448 -0.111956
vn 0.160746 0.982914 0.089670
vn 0.160747 0.982914 0.089670
vn 0.160747 0.982914 0.089670
vn 0.160748 0.982914 0.089669
vn -0.355413 0.546093 0.758593
vn -0.355414 0.546092 0.758594
vn -0.355414 0.546092 0.758594
vn -0.355414 0.546092 0.758594
s 1
g bambooShoot1
f 4/1/1 3/34/2 2/4/3
f 2/4/3 3/34/2 1/3/4
f 6/36/5 5/45/6 4/26/1
f 4/26/1 5/45/6 3/33/2
f 8/38/7 7/41/8 6/53/5
f 6/53/5 7/41/8 5/28/6
f 9/21/9 7/22/8 8/49/7
f 11/35/10 10/39/11 9/9/9
f 13/37/12 12/43/13 11/47/10
f 11/47/10 12/43/13 10/19/11
f 15/30/14 14/31/15 13/51/12
f 13/51/12 14/31/15 12/25/13
f 17/17/16 16/18/17 15/29/14
f 15/29/14 16/18/17 14/16/15
f 4/1/1 2/4/3 15/27/14
f 15/27/14 2/4/3 17/12/16
f 6/5/5 4/24/1 13/52/12
f 13/52/12 4/24/1 15/15/14
f 8/7/7 6/54/5 11/48/10
f 11/48/10 6/54/5 13/13/12
f 9/23/9 8/50/7 11/10/10
f 1/3/4 3/34/2 16/18/17
f 16/18/17 3/34/2 14/16/15
f 3/2/2 5/46/6 14/32/15
f 14/32/15 5/46/6 12/14/13
f 5/6/6 7/42/8 12/44/13
f 12/44/13 7/42/8 10/11/11
f 7/8/8 9/20/9 10/40/11
s 7
f 26/55/18 19/56/19 25/58/20
f 25/58/20 19/56/19 22/57/21
s 8
f 22/57/22 21/59/23 25/58/24
f 25/58/24 21/59/23 24/60/25
s 9
f 23/61/26 25/58/27 20/62/28
f 20/62/28 25/58/27 24/60/29
s 10
f 26/55/30 25/58/31 18/63/32
f 18/63/32 25/58/31 23/61/33
s 11
f 35/64/34 28/65/35 34/67/36
f 34/67/36 28/65/35 31/66/37
s 12
f 31/66/38 30/68/39 34/67/40
f 34/67/40 30/68/39 33/69/41
s 13
f 32/70/42 34/67/43 29/71/44
f 29/71/44 34/67/43 33/69/45
s 14
f 35/64/46 34/67/47 27/72/48
f 27/72/48 34/67/47 32/70/49
s 15
f 37/74/50 40/75/51 44/73/52
f 44/73/52 40/75/51 43/76/53
s 16
f 43/76/54 40/75/55 42/78/56
f 42/78/56 40/75/55 39/77/57
s 17
f 43/76/58 42/78/59 41/79/60
f 41/79/60 42/78/59 38/80/61
s 18
f 36/81/62 44/73/63 41/79/64
f 41/79/64 44/73/63 43/76/65
s 19
f 53/82/66 46/83/67 52/85/68
f 52/85/68 46/83/67 49/84/69
s 20
f 49/84/70 48/86/71 52/85/72
f 52/85/72 48/86/71 51/87/73
s 21
f 50/88/74 52/85/75 47/89/76
f 47/89/76 52/85/75 51/87/77
s 22
f 53/82/78 52/85/79 45/90/80
f 45/90/80 52/85/79 50/88/81
s 23
f 62/91/82 55/92/83 61/94/84
f 61/94/84 55/92/83 58/93/85
s 24
f 58/93/86 57/95/87 61/94/88
f 61/94/88 57/95/87 60/96/89
s 25
f 59/97/90 61/94/91 56/98/92
f 56/98/92 61/94/91 60/96/93
s 26
f 62/91/94 61/94/95 54/99/96
f 54/99/96 61/94/95 59/97/97
s 27
f 71/100/98 64/101/99 70/103/100
f 70/103/100 64/101/99 67/102/101
s 28
f 67/102/102 66/104/103 70/103/104
f 70/103/104 66/104/103 69/105/105
s 29
f 68/106/106 70/103/107 65/107/108
f 65/107/108 70/103/107 69/105/109
s 30
f 71/100/110 70/103/111 63/108/112
f 63/108/112 70/103/111 68/106/113
s 31
f 80/109/114 73/110/115 79/112/116
f 79/112/116 73/110/115 76/111/117
s 32
f 76/111/118 75/113/119 79/112/120
f 79/112/120 75/113/119 78/114/121
s 33
f 77/115/122 79/112/123 74/116/124
f 74/116/124 79/112/123 78/114/125
s 34
f 80/109/126 79/112/127 72/117/128
f 72/117/128 79/112/127 77/115/129
s 35
f 89/118/130 82/119/131 88/121/132
f 88/121/132 82/119/131 85/120/133
s 36
f 85/120/134 84/122/135 88/121/136
f 88/121/136 84/122/135 87/123/137
s 37
f 86/124/138 88/121/139 83/125/140
f 83/125/140 88/121/139 87/123/141
s 38
f 81/126/142 89/118/143 86/124/144
f 86/124/144 89/118/143 88/121/145
s 39
f 98/127/146 91/128/147 97/130/148
f 97/130/148 91/128/147 94/129/149
s 40
f 94/129/150 93/131/151 97/130/152
f 97/130/152 93/131/151 96/132/153
s 41
f 95/133/154 97/130/155 92/134/156
f 92/134/156 97/130/155 96/132/157
s 42
f 90/135/158 98/127/159 95/133/160
f 95/133/160 98/127/159 97/130/161
s 43
f 107/136/162 100/137/163 106/139/164
f 106/139/164 100/137/163 103/138/165
s 44
f 103/138/166 102/140/167 106/139/168
f 106/139/168 102/140/167 105/141/169
s 45
f 104/142/170 106/139/171 101/143/172
f 101/143/172 106/139/171 105/141/173
s 46
f 99/144/174 107/136/175 104/142/176
f 104/142/176 107/136/175 106/139/177
s 47
f 116/145/178 109/146/179 115/148/180
f 115/148/180 109/146/179 112/147/181
s 48
f 112/147/182 111/149/183 115/148/184
f 115/148/184 111/149/183 114/150/185
s 49
f 113/151/186 115/148/187 110/152/188
f 110/152/188 115/148/187 114/150/189
s 50
f 108/153/190 116/145/191 113/151/192
f 113/151/192 116/145/191 115/148/193
s 51
f 125/154/194 118/155/195 124/157/196
f 124/157/196 118/155/195 121/156/197
s 52
f 121/156/198 120/158/199 124/157/200
f 124/157/200 120/158/199 123/159/201
s 53
f 122/160/202 124/157/203 119/161/204
f 119/161/204 124/157/203 123/159/205
s 54
f 117/162/206 125/154/207 122/160/208
f 122/160/208 125/154/207 124/157/209
s 55
f 134/163/210 127/164/211 133/166/212
f 133/166/212 127/164/211 130/165/213
s 56
f 130/165/214 129/167/215 133/166/216
f 133/166/216 129/167/215 132/168/217
s 57
f 131/169/218 133/166/219 128/170/220
f 128/170/220 133/166/219 132/168/221
s 58
f 126/171/222 134/163/223 131/169/224
f 131/169/224 134/163/223 133/166/225
s 59
f 143/172/226 136/173/227 142/175/228
f 142/175/228 136/173/227 139/174/229
s 60
f 139/174/230 138/176/231 142/175/232
f 142/175/232 138/176/231 141/177/233
s 61
f 140/178/234 142/175/235 137/179/236
f 137/179/236 142/175/235 141/177/237
s 62
f 135/180/238 143/172/239 140/178/240
f 140/178/240 143/172/239 142/175/241
s 63
f 152/181/242 145/182/243 151/184/244
f 151/184/244 145/182/243 148/183/245
s 64
f 148/183/246 147/185/247 151/184/248
f 151/184/248 147/185/247 150/186/249
s 65
f 149/187/250 151/184/251 146/188/252
f 146/188/252 151/184/251 150/186/253
s 66
f 144/189/254 152/181/255 149/187/256
f 149/187/256 152/181/255 151/184/257
